<?xml version="1.0" encoding="UTF-8"?>
<svg id="Layer_1" data-name="Layer 1" xmlns="http://www.w3.org/2000/svg" viewBox="0 0 85.59 31.95">
  <defs>
    <style>
      .cls-1 {
        fill: #fff;
      }
    </style>
  </defs>
  <path class="cls-1" d="M38.16,0c.06.8.16,1.64.16,2.44l-.07,7.31-28.46.02c-.12.62-.11,1.25,0,1.83.73.49,1.6.48,2.32.72l25.55,8.58c.16.57.11,1.07.11,1.59l-.04,9.42-7.98.05c-.76,0-1.53,0-2.35-.1-.05-1.17.02-2.2-.08-3.24-.04-.42.24-.9-.02-1.45L2.43,18.62c-.81-.28-1.6-.64-2.43-.83V0h38.16Z"/>
  <path class="cls-1" d="M85.34,0c.13.21.23.47.23.8l.02,1.63-.04,15.35-27.29,9.41-.06,4.71-7.94.05-2.33-.08-.02-10.95,25.93-8.62c.66-.22,1.35-.36,2.03-.7.03-.65.11-1.26-.05-1.85l-26.07.04c-.76,0-1.53,0-2.38-.12l-.02-8.54c0-.43.02-.81.16-1.13h37.84Z"/>
</svg>