<?xml version="1.0" encoding="UTF-8"?>
<svg id="Layer_1" data-name="Layer 1" xmlns="http://www.w3.org/2000/svg" viewBox="0 0 162.74 60.75">
  <defs>
    <style>
      .cls-1 {
        fill: #030303;
      }
    </style>
  </defs>
  <path class="cls-1" d="M72.56,0c.11,1.51.31,3.11.3,4.63l-.13,13.89-54.11.04c-.23,1.18-.22,2.37,0,3.47,1.39.93,3.04.91,4.41,1.37l48.59,16.32c.31,1.09.21,2.04.21,3.02l-.07,17.91-15.18.09c-1.44,0-2.92.02-4.47-.2-.09-2.23.05-4.18-.14-6.16-.08-.8.46-1.71-.04-2.76L4.63,35.4c-1.54-.53-3.04-1.22-4.63-1.58V0h72.56Z"/>
  <path class="cls-1" d="M162.27,0c.25.39.43.9.44,1.52l.03,3.09-.07,29.19-51.89,17.9-.11,8.95-15.09.09-4.44-.15-.04-20.82,49.3-16.38c1.26-.42,2.57-.68,3.87-1.33.05-1.23.2-2.39-.1-3.51l-49.57.08c-1.44,0-2.91.01-4.53-.23l-.04-16.24c0-.82.04-1.53.3-2.15h71.94Z"/>
</svg>